<svg width="512" height="512" viewBox="0 0 512 512" fill="none" xmlns="http://www.w3.org/2000/svg" role="img" aria-labelledby="title desc">
  <title id="title">Spis scope logo</title>
  <desc id="desc">scope candidate using Wisent mark with control core signal.</desc>
  <rect width="512" height="512" rx="96" fill="#FFFFFF"/>
  <path d="M112 148H400M112 364H400M148 112V400M364 112V400" stroke="#121212" stroke-width="6" stroke-linecap="round" opacity="0.12"/>
  <path d="M136 136H376V376H136V136Z" stroke="#4F6650" stroke-width="8" stroke-linejoin="round" opacity="0.72"/>
  <g transform="translate(96 92) scale(10)">
    <path d="M32 13.6655V16.8936C31.9 17.4004 31.82 17.9115 31.6977 18.4129C30.3256 24.0803 26.8144 27.9271 21.1589 29.8855C20.0411 30.2728 18.8333 30.4127 17.6667 30.6667H14.5556C14.4133 30.6344 14.2723 30.5924 14.1277 30.572C7.61223 29.6639 3.19333 26.2065 0.903333 20.2529C0.44 19.0477 0.293333 17.7296 0 16.4632C0 15.6744 0 14.8847 0 14.0959C0.103333 13.5008 0.177777 12.8983 0.315556 12.3108C1.73889 6.21404 5.60111 2.31883 11.7444 0.517567C12.5844 0.271157 13.4689 0.168936 14.3333 0C15.4444 0 16.5556 0 17.6667 0C17.7911 0.0312053 17.9133 0.0753214 18.04 0.0903854C24.7489 0.89848 30.2533 5.75672 31.6933 12.1472C31.8067 12.6508 31.8989 13.1587 32 13.6655ZM3.70667 8.53824C3.63111 8.62863 3.57556 8.6792 3.54 8.73947C2.69667 10.1921 2.17444 11.7502 1.94777 13.3976C1.92777 13.5439 2.09777 13.786 2.24777 13.8732C3.21333 14.4348 4.18 14.9997 5.18444 15.4936C5.65111 15.7228 5.77667 15.9897 5.78 16.4761C5.81556 21.4807 8.05444 25.3393 12.3011 28.1477C12.6733 28.3941 13.0033 28.4372 13.43 28.2855C16.5233 27.1815 18.9356 25.2725 20.7444 22.6116C21.3789 21.6787 21.2611 21.8379 22.2523 22.0552C23.8923 22.4157 25.5311 22.7784 27.1644 23.1603C27.4877 23.2356 27.6911 23.1851 27.8377 22.8913C28.4233 21.7195 29.0244 20.5553 29.5977 19.3792C29.7177 19.1328 29.7489 18.8444 29.83 18.5441C20.5933 16.4148 11.8744 13.1975 3.70667 8.53824ZM30.1189 16.7979C30.9089 10.771 27.1023 4.39985 20.26 2.32528C14.22 0.493895 7.88333 2.76753 4.73444 7.07377C12.6622 11.5931 21.1423 14.7372 30.1189 16.7979ZM16.5211 28.8977C19.4577 29.1537 25.0777 26.7339 26.1533 24.8001C24.9367 24.5119 23.7144 24.2299 22.4977 23.9264C22.2044 23.8533 22.0411 23.9017 21.8589 24.1567C20.8811 25.5211 19.71 26.7133 18.33 27.7023C17.7667 28.1057 17.1723 28.4695 16.5211 28.8977ZM6.96 25.7643C5.07223 23.1485 4.05667 20.2625 3.91889 17.0851C3.91444 16.9785 3.84444 16.8279 3.75556 16.7773C3.14111 16.4276 2.51444 16.0984 1.79223 15.71C2.06556 19.8483 3.76111 23.17 6.96 25.7643Z" fill="#121212"/>
  </g>
  <g>
  <circle cx="256" cy="244" r="72" fill="none" stroke="#4F6650" stroke-width="9"/>
  <circle cx="256" cy="244" r="28" fill="#4F6650"/>
  <path d="M256 152V192M256 296V336M164 244H204M308 244H348" stroke="#121212" stroke-width="7" stroke-linecap="round" opacity="0.26"/>
  </g>
  <text x="256" y="438" text-anchor="middle" fill="#121212" opacity="0.72" font-family="Hubot Sans, Arial, sans-serif" font-size="28" font-weight="600" letter-spacing="0">Spis</text>
</svg>
